<svg id="Layer_1" data-name="Layer 1" xmlns="http://www.w3.org/2000/svg" viewBox="0 0 1280 507.47"><defs><style>.cls-1{fill:#fff;}.cls-2{fill:#ee5050;stroke:#ee5050;stroke-linecap:round;stroke-miterlimit:10;stroke-width:3px;}</style></defs><path class="cls-1" d="M283.85,449.06q-16.17,26.65-47.64,42.53t-76.28,15.88q-67.5,0-111.16-32.89T1.13,382.7H104.35q2.27,22.69,16.17,35.73T156,431.48q18.72,0,29.49-10.21T196.23,394q0-15.3-9.93-25.52a78,78,0,0,0-24.67-16.73q-14.74-6.51-40.83-15.59-38-13.05-62.1-25.24t-41.4-36.3Q0,250.57,0,212q0-35.72,18.15-61.81t50.19-40q32-13.89,73.44-13.89,66.91,0,106.34,31.76t44.52,87.34H187.72q-2.85-19.85-14.46-31.48T141.78,172.3q-17,0-27.5,9.07T103.78,208a33.84,33.84,0,0,0,9.36,24.11,71.22,71.22,0,0,0,23.54,16.16q14.17,6.26,40.83,15.88,38.57,13.05,63,25.81t42,37.14Q300,351.51,300,390.64A110.5,110.5,0,0,1,283.85,449.06Z"/><path class="cls-1" d="M450.87,187V503.5h-97V187Z"/><path class="cls-1" d="M837.08,503.5,750.31,352.08H728.19V503.5h-97v-401h165.6q47.64,0,80.53,16.44t49.34,45.09q16.46,28.65,16.45,65.51,0,43.66-24.1,74.29t-70,42L944.27,503.5ZM728.19,285.72H788.3q28.94,0,42.54-12.76t13.61-37.71q0-23.82-13.9-37.43T788.3,184.2H728.19Z"/><path class="cls-1" d="M1280,102.54v77.13H1171.11V503.5h-97.55V179.67H965.81V102.54Z"/><circle class="cls-2" cx="402.38" cy="72.16" r="72.16"/></svg>